<?xml version="1.0" standalone="no"?>
<!DOCTYPE svg PUBLIC "-//W3C//DTD SVG 20010904//EN"
 "http://www.w3.org/TR/2001/REC-SVG-20010904/DTD/svg10.dtd">
<svg version="1.0" xmlns="http://www.w3.org/2000/svg"
 width="900.000000pt" height="900.000000pt" viewBox="0 0 900.000000 900.000000"
 preserveAspectRatio="xMidYMid meet">
<metadata>
Created by potrace 1.10, written by Peter Selinger 2001-2011
</metadata>
<g transform="translate(0.000000,900.000000) scale(0.100000,-0.100000)"
fill="#000000" stroke="none">
<path d="M3780 7299 c-823 -5 -948 -10 -1043 -38 -227 -66 -306 -101 -457
-198 -104 -67 -276 -238 -345 -342 -53 -80 -145 -257 -145 -278 0 -7 -4 -21
-9 -31 -14 -26 -42 -120 -52 -177 -28 -152 -29 -254 -27 -1810 3 -1303 6
-1621 17 -1670 18 -82 41 -164 58 -202 7 -17 13 -35 13 -41 0 -5 24 -55 52
-110 113 -217 281 -400 498 -546 47 -31 90 -60 95 -65 6 -4 23 -11 38 -15 15
-3 27 -11 27 -16 0 -6 10 -10 23 -10 13 0 32 -7 43 -15 10 -8 33 -15 50 -15
17 0 37 -7 44 -15 7 -8 29 -15 50 -15 21 0 54 -7 73 -15 55 -23 3376 -23 3430
0 20 8 53 15 74 15 21 0 47 7 57 15 11 8 31 15 45 15 14 0 35 7 45 15 11 8 30
15 42 15 12 0 27 7 34 15 7 8 21 15 32 15 11 0 26 7 34 15 9 8 24 15 35 15 10
0 19 4 19 8 0 4 12 13 28 20 44 19 109 60 138 87 15 14 32 25 37 25 6 0 17 7
26 15 9 8 35 33 59 55 23 22 71 79 107 128 36 48 69 92 75 99 5 7 10 19 10 28
0 9 7 18 15 21 8 4 15 14 15 24 0 10 7 23 15 30 8 7 15 21 15 31 0 9 7 24 15
33 8 8 15 24 15 35 0 11 7 26 15 35 8 8 15 25 15 38 0 13 7 33 15 44 8 10 15
36 15 57 0 21 8 52 18 70 16 30 17 134 17 1772 0 1631 -1 1742 -18 1772 -9 18
-17 47 -17 65 -1 18 -7 44 -15 58 -8 14 -14 35 -15 46 0 12 -7 27 -15 34 -8 7
-15 23 -15 35 0 12 -7 28 -15 35 -8 7 -15 18 -15 24 0 6 -23 45 -51 86 -201
292 -349 432 -579 547 -143 71 -218 94 -419 128 -102 18 -246 18 -2341 4z
m1985 -310 c309 -5 348 -8 425 -28 47 -13 89 -27 95 -32 5 -5 15 -9 23 -9 7 0
45 -16 84 -36 239 -119 422 -333 506 -590 49 -148 47 -74 47 -1829 0 -1554 -1
-1654 -18 -1720 -97 -379 -365 -642 -727 -715 -143 -28 -271 -30 -1786 -28
-1244 3 -1567 6 -1599 16 -22 7 -65 21 -95 30 -79 23 -193 77 -264 125 -138
93 -293 282 -350 427 -10 25 -22 52 -26 60 -20 41 -49 187 -59 300 -6 79 -13
672 -16 1598 -6 1683 -11 1566 77 1812 15 41 90 171 122 209 53 64 156 167
206 205 150 115 331 186 520 205 96 10 2316 10 2835 0z"/>
<path d="M5485 6373 c-11 -3 -24 -9 -29 -14 -6 -5 -17 -9 -26 -9 -23 0 -89
-65 -94 -93 -3 -12 -12 -60 -21 -107 -9 -46 -18 -87 -21 -90 -8 -7 -89 -54
-149 -85 -27 -15 -77 -41 -110 -60 -33 -18 -80 -43 -105 -56 -25 -13 -72 -39
-105 -58 -126 -73 -125 -71 -125 -386 l0 -256 35 -37 c30 -32 41 -37 79 -37
33 0 51 6 70 24 52 49 56 69 56 280 l0 196 33 19 c17 10 60 34 94 52 34 19 85
47 113 64 75 44 84 41 76 -22 -3 -29 -10 -93 -15 -143 -5 -49 -14 -121 -20
-160 -6 -38 -15 -104 -21 -145 -6 -41 -18 -120 -25 -175 -15 -97 -36 -281 -56
-475 -5 -52 -13 -108 -18 -125 -5 -16 -12 -61 -16 -100 -3 -38 -10 -90 -15
-115 -5 -25 -12 -67 -16 -95 l-7 -50 -13 60 c-7 33 -18 82 -23 108 -11 51 -35
129 -51 162 -5 11 -20 45 -34 75 -14 30 -38 78 -54 105 -28 49 -163 260 -179
280 -5 6 -31 44 -59 85 -28 41 -73 107 -100 145 -227 326 -359 560 -434 770
-18 50 -36 99 -41 110 -5 11 -22 59 -38 108 -37 113 -71 162 -119 174 -42 11
-102 -5 -135 -35 -22 -20 -57 -85 -57 -106 0 -9 -6 -30 -14 -48 -13 -31 -25
-74 -46 -158 -15 -63 -55 -171 -106 -288 -34 -77 -80 -161 -138 -252 -57 -89
-315 -416 -346 -440 -4 -3 -43 -49 -88 -103 -192 -228 -308 -458 -342 -674
-29 -182 -30 -244 -11 -383 19 -132 34 -205 51 -245 5 -11 19 -45 32 -75 12
-30 35 -77 50 -103 15 -26 28 -50 28 -53 0 -3 5 -10 10 -17 6 -7 32 -41 59
-77 62 -83 193 -208 251 -240 33 -17 61 -24 107 -24 55 -1 65 2 91 27 48 46
66 88 58 132 -6 32 -27 58 -121 149 -191 188 -260 301 -306 505 -31 139 -20
303 33 466 34 107 129 267 231 386 293 344 484 620 624 901 24 47 43 91 43 97
0 21 21 11 30 -15 10 -25 121 -249 144 -289 6 -11 34 -58 61 -103 28 -46 55
-91 60 -100 6 -9 42 -64 81 -122 67 -99 96 -142 218 -318 28 -40 56 -81 61
-90 6 -9 22 -35 36 -57 65 -102 131 -262 160 -390 19 -81 19 -335 0 -395 -43
-142 -90 -254 -122 -294 -5 -6 -30 -38 -56 -72 -27 -33 -70 -80 -98 -103 -126
-105 -147 -140 -130 -208 9 -38 50 -90 85 -108 59 -31 129 -17 205 39 72 53
235 229 235 254 0 6 4 12 8 14 13 5 70 103 95 164 13 31 26 53 29 48 12 -21
-45 -547 -61 -566 -3 -4 -490 -9 -1081 -12 -653 -3 -1085 -8 -1100 -14 -34
-13 -55 -39 -70 -85 -17 -53 1 -115 47 -159 l34 -33 1778 -3 1778 -2 34 33
c39 38 65 103 56 139 -18 69 -100 138 -164 138 -32 0 -33 1 -33 43 0 23 -7 73
-15 112 -8 38 -15 92 -16 120 0 27 -4 73 -9 100 -6 28 -14 92 -20 144 -5 51
-14 119 -20 150 -11 65 -27 189 -40 316 -5 50 -14 110 -19 135 -10 46 -27 174
-41 313 -5 43 -13 106 -19 140 -12 68 -25 159 -46 312 -8 55 -21 145 -29 200
-8 55 -22 150 -31 210 -9 61 -23 153 -31 205 -29 189 -42 305 -34 314 11 11
304 -133 322 -159 4 -5 8 -103 8 -216 l0 -206 34 -39 c31 -36 38 -39 86 -39
48 0 55 3 86 39 18 21 37 55 40 74 4 19 5 130 2 246 -7 300 -9 302 -279 440
-378 192 -345 165 -376 301 -12 54 -28 93 -48 119 -44 57 -128 86 -200 69z
m70 -793 c9 -53 15 -109 13 -125 -3 -26 -8 -30 -36 -33 -43 -4 -48 11 -34 112
6 44 14 113 18 151 8 79 5 89 39 -105z m60 -440 c3 -5 10 -42 15 -82 10 -92
27 -202 45 -298 7 -41 10 -79 5 -85 -5 -6 -59 -8 -142 -5 l-133 5 1 45 c3 115
31 353 50 418 4 15 150 17 159 2z m96 -781 c9 -19 27 -123 39 -234 6 -49 14
-112 19 -140 5 -27 7 -53 4 -57 -2 -5 -108 -8 -235 -8 l-230 0 5 48 c13 140
44 360 54 389 4 9 49 13 161 15 189 4 174 5 183 -13z m105 -794 c7 -27 18 -90
23 -140 10 -87 19 -160 42 -330 6 -44 11 -100 12 -125 l2 -45 -347 0 c-190 0
-349 3 -353 7 -4 4 -2 31 5 60 6 29 15 98 20 153 18 226 48 445 62 463 8 9 70
12 266 10 l256 -3 12 -50z"/>
<path d="M3830 4924 c0 -89 -25 -234 -49 -282 -5 -10 -24 -48 -42 -87 -43 -88
-109 -176 -214 -285 -148 -154 -193 -235 -216 -391 -13 -90 0 -226 27 -278 8
-14 14 -29 14 -33 0 -4 16 -34 36 -67 42 -71 138 -164 200 -194 64 -31 73 -16
41 70 -40 104 -51 219 -34 323 24 135 67 223 157 320 28 30 61 75 72 99 15 32
22 40 29 30 5 -8 9 -21 9 -29 0 -8 10 -26 23 -40 161 -178 212 -289 212 -460
0 -99 -11 -150 -51 -238 -43 -92 1 -120 92 -59 45 30 153 151 154 171 0 5 6
17 13 25 16 20 40 78 62 155 14 45 16 81 12 160 -9 167 -56 262 -213 426 -114
120 -118 129 -120 301 -1 85 -6 154 -13 167 -6 11 -11 29 -11 39 0 32 -71 160
-115 207 -66 71 -75 65 -75 -50z"/>
<path d="M6832 1933 c-15 -6 -6 -23 14 -23 8 0 14 7 14 15 0 15 -6 17 -28 8z"/>
</g>
<text x="300" y="820" font-family="Arial" font-size="60" fill="black" >Oil &amp; Gas</text>
</svg>
