<svg xmlns="http://www.w3.org/2000/svg" xmlns:xlink="http://www.w3.org/1999/xlink" version="1.1" width="1000" height="1000" viewBox="0 0 1000 1000" xml:space="preserve">
<desc>Created with Fabric.js 3.5.0</desc>
<defs>
</defs>
<rect x="0" y="0" width="100%" height="100%" fill="#ffffff"/>
<g transform="matrix(0.4267 0 0 0.4267 256.02 256.02)" id="538216">
<g style="" vector-effect="non-scaling-stroke">
		<g transform="matrix(0.1333 0 0 -0.1333 -0.3366 2.1193)">
<path style="stroke: none; stroke-width: 1; stroke-dasharray: none; stroke-linecap: butt; stroke-dashoffset: 0; stroke-linejoin: miter; stroke-miterlimit: 4; is-custom-font: none; font-file-url: none; fill: rgb(0,0,0); fill-rule: nonzero; opacity: 1;" transform=" translate(-4498.1748, -4483.3985)" d="M 3780 7299 c -823 -5 -948 -10 -1043 -38 c -227 -66 -306 -101 -457 -198 c -104 -67 -276 -238 -345 -342 c -53 -80 -145 -257 -145 -278 c 0 -7 -4 -21 -9 -31 c -14 -26 -42 -120 -52 -177 c -28 -152 -29 -254 -27 -1810 c 3 -1303 6 -1621 17 -1670 c 18 -82 41 -164 58 -202 c 7 -17 13 -35 13 -41 c 0 -5 24 -55 52 -110 c 113 -217 281 -400 498 -546 c 47 -31 90 -60 95 -65 c 6 -4 23 -11 38 -15 c 15 -3 27 -11 27 -16 c 0 -6 10 -10 23 -10 c 13 0 32 -7 43 -15 c 10 -8 33 -15 50 -15 c 17 0 37 -7 44 -15 c 7 -8 29 -15 50 -15 c 21 0 54 -7 73 -15 c 55 -23 3376 -23 3430 0 c 20 8 53 15 74 15 c 21 0 47 7 57 15 c 11 8 31 15 45 15 c 14 0 35 7 45 15 c 11 8 30 15 42 15 c 12 0 27 7 34 15 c 7 8 21 15 32 15 c 11 0 26 7 34 15 c 9 8 24 15 35 15 c 10 0 19 4 19 8 c 0 4 12 13 28 20 c 44 19 109 60 138 87 c 15 14 32 25 37 25 c 6 0 17 7 26 15 c 9 8 35 33 59 55 c 23 22 71 79 107 128 c 36 48 69 92 75 99 c 5 7 10 19 10 28 c 0 9 7 18 15 21 c 8 4 15 14 15 24 c 0 10 7 23 15 30 c 8 7 15 21 15 31 c 0 9 7 24 15 33 c 8 8 15 24 15 35 c 0 11 7 26 15 35 c 8 8 15 25 15 38 c 0 13 7 33 15 44 c 8 10 15 36 15 57 c 0 21 8 52 18 70 c 16 30 17 134 17 1772 c 0 1631 -1 1742 -18 1772 c -9 18 -17 47 -17 65 c -1 18 -7 44 -15 58 c -8 14 -14 35 -15 46 c 0 12 -7 27 -15 34 c -8 7 -15 23 -15 35 c 0 12 -7 28 -15 35 c -8 7 -15 18 -15 24 c 0 6 -23 45 -51 86 c -201 292 -349 432 -579 547 c -143 71 -218 94 -419 128 c -102 18 -246 18 -2341 4 z m 1985 -310 c 309 -5 348 -8 425 -28 c 47 -13 89 -27 95 -32 c 5 -5 15 -9 23 -9 c 7 0 45 -16 84 -36 c 239 -119 422 -333 506 -590 c 49 -148 47 -74 47 -1829 c 0 -1554 -1 -1654 -18 -1720 c -97 -379 -365 -642 -727 -715 c -143 -28 -271 -30 -1786 -28 c -1244 3 -1567 6 -1599 16 c -22 7 -65 21 -95 30 c -79 23 -193 77 -264 125 c -138 93 -293 282 -350 427 c -10 25 -22 52 -26 60 c -20 41 -49 187 -59 300 c -6 79 -13 672 -16 1598 c -6 1683 -11 1566 77 1812 c 15 41 90 171 122 209 c 53 64 156 167 206 205 c 150 115 331 186 520 205 c 96 10 2316 10 2835 0 z" stroke-linecap="round"/>
</g>
		<g transform="matrix(0.1333 0 0 -0.1333 -0.3323 0.0819)">
<path style="stroke: none; stroke-width: 1; stroke-dasharray: none; stroke-linecap: butt; stroke-dashoffset: 0; stroke-linejoin: miter; stroke-miterlimit: 4; is-custom-font: none; font-file-url: none; fill: rgb(0,0,0); fill-rule: nonzero; opacity: 1;" transform=" translate(-4497.9805, -4498.9161)" d="M 5485 6373 c -11 -3 -24 -9 -29 -14 c -6 -5 -17 -9 -26 -9 c -23 0 -89 -65 -94 -93 c -3 -12 -12 -60 -21 -107 c -9 -46 -18 -87 -21 -90 c -8 -7 -89 -54 -149 -85 c -27 -15 -77 -41 -110 -60 c -33 -18 -80 -43 -105 -56 c -25 -13 -72 -39 -105 -58 c -126 -73 -125 -71 -125 -386 l 0 -256 l 35 -37 c 30 -32 41 -37 79 -37 c 33 0 51 6 70 24 c 52 49 56 69 56 280 l 0 196 l 33 19 c 17 10 60 34 94 52 c 34 19 85 47 113 64 c 75 44 84 41 76 -22 c -3 -29 -10 -93 -15 -143 c -5 -49 -14 -121 -20 -160 c -6 -38 -15 -104 -21 -145 c -6 -41 -18 -120 -25 -175 c -15 -97 -36 -281 -56 -475 c -5 -52 -13 -108 -18 -125 c -5 -16 -12 -61 -16 -100 c -3 -38 -10 -90 -15 -115 c -5 -25 -12 -67 -16 -95 l -7 -50 l -13 60 c -7 33 -18 82 -23 108 c -11 51 -35 129 -51 162 c -5 11 -20 45 -34 75 c -14 30 -38 78 -54 105 c -28 49 -163 260 -179 280 c -5 6 -31 44 -59 85 c -28 41 -73 107 -100 145 c -227 326 -359 560 -434 770 c -18 50 -36 99 -41 110 c -5 11 -22 59 -38 108 c -37 113 -71 162 -119 174 c -42 11 -102 -5 -135 -35 c -22 -20 -57 -85 -57 -106 c 0 -9 -6 -30 -14 -48 c -13 -31 -25 -74 -46 -158 c -15 -63 -55 -171 -106 -288 c -34 -77 -80 -161 -138 -252 c -57 -89 -315 -416 -346 -440 c -4 -3 -43 -49 -88 -103 c -192 -228 -308 -458 -342 -674 c -29 -182 -30 -244 -11 -383 c 19 -132 34 -205 51 -245 c 5 -11 19 -45 32 -75 c 12 -30 35 -77 50 -103 c 15 -26 28 -50 28 -53 c 0 -3 5 -10 10 -17 c 6 -7 32 -41 59 -77 c 62 -83 193 -208 251 -240 c 33 -17 61 -24 107 -24 c 55 -1 65 2 91 27 c 48 46 66 88 58 132 c -6 32 -27 58 -121 149 c -191 188 -260 301 -306 505 c -31 139 -20 303 33 466 c 34 107 129 267 231 386 c 293 344 484 620 624 901 c 24 47 43 91 43 97 c 0 21 21 11 30 -15 c 10 -25 121 -249 144 -289 c 6 -11 34 -58 61 -103 c 28 -46 55 -91 60 -100 c 6 -9 42 -64 81 -122 c 67 -99 96 -142 218 -318 c 28 -40 56 -81 61 -90 c 6 -9 22 -35 36 -57 c 65 -102 131 -262 160 -390 c 19 -81 19 -335 0 -395 c -43 -142 -90 -254 -122 -294 c -5 -6 -30 -38 -56 -72 c -27 -33 -70 -80 -98 -103 c -126 -105 -147 -140 -130 -208 c 9 -38 50 -90 85 -108 c 59 -31 129 -17 205 39 c 72 53 235 229 235 254 c 0 6 4 12 8 14 c 13 5 70 103 95 164 c 13 31 26 53 29 48 c 12 -21 -45 -547 -61 -566 c -3 -4 -490 -9 -1081 -12 c -653 -3 -1085 -8 -1100 -14 c -34 -13 -55 -39 -70 -85 c -17 -53 1 -115 47 -159 l 34 -33 l 1778 -3 l 1778 -2 l 34 33 c 39 38 65 103 56 139 c -18 69 -100 138 -164 138 c -32 0 -33 1 -33 43 c 0 23 -7 73 -15 112 c -8 38 -15 92 -16 120 c 0 27 -4 73 -9 100 c -6 28 -14 92 -20 144 c -5 51 -14 119 -20 150 c -11 65 -27 189 -40 316 c -5 50 -14 110 -19 135 c -10 46 -27 174 -41 313 c -5 43 -13 106 -19 140 c -12 68 -25 159 -46 312 c -8 55 -21 145 -29 200 c -8 55 -22 150 -31 210 c -9 61 -23 153 -31 205 c -29 189 -42 305 -34 314 c 11 11 304 -133 322 -159 c 4 -5 8 -103 8 -216 l 0 -206 l 34 -39 c 31 -36 38 -39 86 -39 c 48 0 55 3 86 39 c 18 21 37 55 40 74 c 4 19 5 130 2 246 c -7 300 -9 302 -279 440 c -378 192 -345 165 -376 301 c -12 54 -28 93 -48 119 c -44 57 -128 86 -200 69 z m 70 -793 c 9 -53 15 -109 13 -125 c -3 -26 -8 -30 -36 -33 c -43 -4 -48 11 -34 112 c 6 44 14 113 18 151 c 8 79 5 89 39 -105 z m 60 -440 c 3 -5 10 -42 15 -82 c 10 -92 27 -202 45 -298 c 7 -41 10 -79 5 -85 c -5 -6 -59 -8 -142 -5 l -133 5 l 1 45 c 3 115 31 353 50 418 c 4 15 150 17 159 2 z m 96 -781 c 9 -19 27 -123 39 -234 c 6 -49 14 -112 19 -140 c 5 -27 7 -53 4 -57 c -2 -5 -108 -8 -235 -8 l -230 0 l 5 48 c 13 140 44 360 54 389 c 4 9 49 13 161 15 c 189 4 174 5 183 -13 z m 105 -794 c 7 -27 18 -90 23 -140 c 10 -87 19 -160 42 -330 c 6 -44 11 -100 12 -125 l 2 -45 l -347 0 c -190 0 -349 3 -353 7 c -4 4 -2 31 5 60 c 6 29 15 98 20 153 c 18 226 48 445 62 463 c 8 9 70 12 266 10 l 256 -3 l 12 -50 z" stroke-linecap="round"/>
</g>
		<g transform="matrix(0.1333 0 0 -0.1333 -87.8353 45.9111)">
<path style="stroke: none; stroke-width: 1; stroke-dasharray: none; stroke-linecap: butt; stroke-dashoffset: 0; stroke-linejoin: miter; stroke-miterlimit: 4; is-custom-font: none; font-file-url: none; fill: rgb(0,0,0); fill-rule: nonzero; opacity: 1;" transform=" translate(-3841.3695, -4155.4506)" d="M 3830 4924 c 0 -89 -25 -234 -49 -282 c -5 -10 -24 -48 -42 -87 c -43 -88 -109 -176 -214 -285 c -148 -154 -193 -235 -216 -391 c -13 -90 0 -226 27 -278 c 8 -14 14 -29 14 -33 c 0 -4 16 -34 36 -67 c 42 -71 138 -164 200 -194 c 64 -31 73 -16 41 70 c -40 104 -51 219 -34 323 c 24 135 67 223 157 320 c 28 30 61 75 72 99 c 15 32 22 40 29 30 c 5 -8 9 -21 9 -29 c 0 -8 10 -26 23 -40 c 161 -178 212 -289 212 -460 c 0 -99 -11 -150 -51 -238 c -43 -92 1 -120 92 -59 c 45 30 153 151 154 171 c 0 5 6 17 13 25 c 16 20 40 78 62 155 c 14 45 16 81 12 160 c -9 167 -56 262 -213 426 c -114 120 -118 129 -120 301 c -1 85 -6 154 -13 167 c -6 11 -11 29 -11 39 c 0 32 -71 160 -115 207 c -66 71 -75 65 -75 -50 z" stroke-linecap="round"/>
</g>
		<g transform="matrix(0.1333 0 0 -0.1333 312.3001 343.4399)">
<path style="stroke: none; stroke-width: 1; stroke-dasharray: none; stroke-linecap: butt; stroke-dashoffset: 0; stroke-linejoin: miter; stroke-miterlimit: 4; is-custom-font: none; font-file-url: none; fill: rgb(0,0,0); fill-rule: nonzero; opacity: 1;" transform=" translate(-6842.2555, -1924.1965)" d="M 6832 1933 c -15 -6 -6 -23 14 -23 c 8 0 14 7 14 15 c 0 15 -6 17 -28 8 z" stroke-linecap="round"/>
</g>
</g>
</g>
</svg>