<?xml version="1.0" standalone="no"?>
<!DOCTYPE svg PUBLIC "-//W3C//DTD SVG 20010904//EN"
 "http://www.w3.org/TR/2001/REC-SVG-20010904/DTD/svg10.dtd">
<svg version="1.0" xmlns="http://www.w3.org/2000/svg"
 width="300.000000pt" height="300.000000pt" viewBox="0 0 300.000000 300.000000"
 preserveAspectRatio="xMidYMid meet">
<metadata>
Created by potrace 1.10, written by Peter Selinger 2001-2011
</metadata>
<g transform="translate(0.000000,300.000000) scale(0.100000,-0.100000)"
fill="#000000" stroke="none">
<path d="M1325 2508 c-217 -40 -408 -143 -561 -300 -196 -201 -287 -422 -288
-698 -1 -181 28 -306 102 -455 55 -111 97 -170 183 -259 134 -140 293 -235
479 -287 75 -21 106 -24 260 -24 208 0 284 17 445 95 282 136 482 384 558 690
32 131 29 350 -6 485 -100 380 -403 665 -792 746 -98 20 -291 24 -380 7z m144
-480 l3 -422 -92 83 -93 83 -2 57 c-2 91 -58 177 -141 216 -48 23 -151 31
-197 16 -20 -7 -52 -23 -70 -36 l-35 -23 -48 42 -48 42 65 65 c172 175 404
284 634 298 20 1 20 -6 24 -421z m219 400 c132 -25 290 -97 401 -183 71 -54
195 -186 184 -195 -4 -4 -32 -17 -61 -29 l-53 -22 -29 21 c-167 119 -410 3
-410 -195 l0 -52 -92 -81 c-51 -44 -93 -79 -93 -79 0 1 1 190 3 420 l3 418 47
-6 c26 -4 71 -11 100 -17z m-894 -507 c-4 -9 -9 -43 -12 -77 -3 -48 1 -71 18
-113 24 -54 86 -117 127 -127 17 -5 23 -13 23 -35 l0 -29 -205 0 -204 0 4 28
c2 15 9 57 15 93 17 108 70 249 128 336 l14 23 50 -41 c35 -30 47 -46 42 -58z
m291 68 c49 -14 106 -71 122 -124 7 -21 10 -41 8 -44 -3 -2 -22 3 -42 12 -57
25 -120 36 -200 37 l-73 0 0 -38 c0 -37 1 -38 34 -34 49 6 173 -16 225 -39
l46 -21 -38 -33 c-94 -82 -245 -57 -296 49 -27 55 -27 108 1 157 42 75 120
104 213 78z m976 -15 c34 -17 77 -68 85 -100 10 -40 -2 -114 -23 -143 -48 -64
-137 -94 -210 -71 -41 13 -103 55 -103 70 0 18 114 51 201 57 l89 6 0 35 0 35
-102 -5 c-71 -4 -120 -12 -157 -26 l-53 -21 5 35 c7 40 45 96 83 121 51 33
127 36 185 7z m302 -63 c46 -100 76 -206 84 -298 l6 -73 -202 0 -201 0 0 25
c0 18 9 29 38 44 113 57 165 195 118 311 -4 11 10 22 52 42 31 14 60 27 63 27
3 1 22 -34 42 -78z m-1111 -150 c4 -44 -13 -50 -31 -11 -10 25 -10 34 0 46 16
20 28 7 31 -35z m544 6 c-3 -7 -9 -20 -12 -29 -7 -20 -13 -22 -31 -10 -10 6
-10 15 -1 39 10 27 15 30 31 22 10 -6 16 -16 13 -22z m-413 -182 l87 -80 0
-67 c0 -38 -2 -68 -6 -68 -3 0 -44 37 -92 83 -48 46 -109 103 -135 127 l-48
43 31 30 c16 16 30 34 30 39 0 12 27 -10 133 -107z m426 35 c-1 -3 -33 -34
-72 -69 -40 -36 -101 -91 -135 -124 -35 -32 -65 -57 -66 -55 -2 2 0 36 3 76
l6 74 100 88 100 88 32 -36 c18 -21 32 -39 32 -42z m-283 -69 l-25 -25 -26 24
-26 25 28 22 27 22 23 -21 24 -22 -25 -25z m-376 14 l23 -25 -76 0 c-69 0 -77
2 -77 19 0 15 8 21 33 24 66 8 74 6 97 -18z m803 15 c20 0 27 -5 27 -20 0 -18
-7 -20 -76 -20 l-75 0 28 25 c17 15 36 23 48 20 11 -3 32 -5 48 -5z m-713 -60
c0 -6 -14 -10 -30 -10 -28 0 -30 2 -20 20 9 16 15 18 30 10 11 -6 20 -15 20
-20z m574 14 c9 -23 8 -24 -26 -24 -30 0 -31 0 -13 20 22 24 31 25 39 4z
m-805 -45 c-12 -23 -32 -24 -49 -4 -10 13 -9 19 5 35 17 19 20 19 36 4 14 -13
16 -21 8 -35z m1031 25 c11 -12 10 -18 -3 -32 -16 -15 -18 -15 -33 0 -19 18
-12 48 9 48 8 0 20 -7 27 -16z m-1090 -94 c0 -27 -3 -50 -7 -50 -5 0 -30 7
-57 15 -27 8 -64 15 -83 15 l-33 0 0 -60 0 -60 35 0 c29 0 35 4 35 21 0 14 5
19 14 16 8 -3 32 -11 55 -18 39 -11 41 -14 41 -51 l0 -38 -180 0 -179 0 -11
38 c-17 66 -30 143 -30 183 l0 39 200 0 200 0 0 -50z m402 -47 c96 -89 126
-131 111 -155 -2 -5 -103 -8 -224 -8 l-219 0 0 38 c0 37 2 40 41 51 23 7 48
15 57 18 12 5 14 1 10 -15 -6 -20 -2 -22 33 -22 l39 0 0 60 0 60 -33 0 c-19 0
-56 -7 -83 -15 -27 -8 -52 -15 -56 -15 -5 0 -8 23 -8 50 l0 50 113 0 113 0
106 -97z m628 47 c0 -50 0 -50 -27 -44 -16 4 -38 11 -51 15 -13 5 -41 9 -63 9
l-39 0 0 -60 0 -60 41 0 c37 0 40 2 34 22 -6 16 -4 20 8 15 9 -3 34 -11 56
-17 39 -10 41 -13 41 -50 l0 -40 -221 0 -220 0 3 34 c3 28 19 48 108 129 l105
96 113 1 112 0 0 -50z m470 11 c0 -40 -13 -117 -30 -183 l-11 -38 -178 0 -178
0 2 37 c2 35 5 38 54 54 50 17 51 17 51 -2 0 -15 7 -19 39 -19 l39 0 0 60 0
60 -36 0 c-21 0 -59 -7 -86 -15 -27 -8 -52 -15 -56 -15 -4 0 -8 23 -8 50 l0
50 199 0 199 0 0 -39z m-1445 -81 c15 -16 15 -22 5 -35 -16 -19 -29 -19 -52 2
-17 15 -17 17 -2 35 21 23 27 23 49 -2z m527 3 c18 -16 18 -17 -4 -40 -27 -29
-35 -29 -58 0 -18 22 -18 22 3 39 28 22 36 22 59 1z m506 5 c16 -16 15 -36 -4
-55 -14 -15 -17 -14 -37 5 -20 21 -20 22 -2 42 21 23 27 24 43 8z m-1034 -164
c9 -23 8 -24 -19 -24 -27 0 -32 9 -13 28 16 16 25 15 32 -4z m1036 1 c10 -12
9 -16 -4 -21 -9 -3 -23 -3 -32 0 -13 5 -14 9 -4 21 7 8 16 15 20 15 4 0 13 -7
20 -15z m-1424 -27 c3 -5 0 -16 -7 -24 -12 -14 -14 -14 -26 2 -19 26 -16 43 7
37 11 -3 23 -10 26 -15z m1803 -24 c-9 -11 -15 -12 -25 -3 -19 16 -17 24 9 36
26 12 37 -8 16 -33z m-1544 1 c88 -19 118 -19 201 1 62 14 74 14 137 0 88 -20
127 -20 216 0 65 15 77 15 142 0 89 -20 130 -20 215 0 62 14 74 14 137 0 87
-20 128 -20 214 0 63 15 74 14 155 -2 l87 -18 -20 -39 c-19 -35 -23 -38 -47
-30 -15 4 -62 7 -104 6 -43 -1 -123 -2 -178 -2 -55 0 -134 0 -175 0 -41 0
-120 0 -175 0 -55 0 -136 0 -180 0 -44 0 -125 0 -180 0 -55 0 -134 0 -175 0
-41 0 -120 0 -175 0 -55 0 -135 1 -177 2 -43 1 -90 -2 -105 -6 -24 -8 -28 -5
-47 31 l-20 39 77 16 c98 19 94 19 177 2z m24 -161 c65 -15 77 -15 142 0 89
20 115 20 210 0 71 -16 82 -16 143 0 36 9 82 16 103 16 21 0 72 -7 114 -16 71
-16 82 -16 143 0 82 20 120 20 202 0 61 -16 71 -16 150 1 77 16 175 17 190 2
3 -3 -6 -21 -20 -40 -20 -26 -32 -33 -50 -30 -13 3 -51 -2 -85 -11 -79 -20
-135 -20 -217 0 -60 15 -70 15 -132 0 -84 -20 -143 -20 -221 0 -51 13 -70 13
-118 3 -98 -20 -158 -21 -236 -4 -69 15 -80 15 -137 1 -78 -20 -136 -20 -213
0 -34 9 -74 14 -89 12 -23 -4 -33 2 -53 28 -14 18 -25 35 -25 38 0 19 113 19
199 0z m-99 -113 c0 -5 -3 -17 -6 -26 -6 -14 -8 -14 -25 1 -15 14 -17 19 -7
26 17 11 38 10 38 -1z m1440 -1 c13 -9 12 -12 -4 -25 -16 -12 -22 -12 -28 -2
-20 31 0 48 32 27z m-1336 -47 c52 -12 68 -12 142 3 85 16 126 16 226 -5 47
-10 68 -9 123 4 83 19 121 19 213 0 64 -14 80 -14 145 0 91 19 134 19 210 -1
65 -17 118 -13 188 11 21 8 39 12 39 9 0 -6 -64 -62 -112 -98 l-39 -28 -89 23
c-82 22 -93 22 -147 10 -99 -23 -143 -24 -220 -5 -66 16 -79 17 -135 4 -80
-19 -166 -19 -245 0 -59 13 -69 13 -154 -9 l-91 -22 -52 40 c-28 22 -63 52
-76 67 -22 24 -22 26 -5 19 11 -4 46 -14 79 -22z m122 -158 c-1 -30 0 -29 -32
-8 -19 12 -22 18 -12 24 26 17 46 10 44 -16z m993 16 c11 -7 9 -11 -9 -21 -18
-10 -24 -9 -31 1 -5 8 -9 17 -9 22 0 10 32 9 49 -2z m-691 -13 c112 1 257 1
350 0 42 0 111 3 152 7 44 4 85 3 100 -3 24 -10 22 -11 -35 -37 -33 -15 -96
-36 -139 -47 -77 -20 -81 -20 -167 -2 -85 17 -93 17 -176 0 -70 -14 -98 -15
-134 -7 -49 11 -181 57 -213 73 -36 19 5 29 94 22 47 -3 122 -6 168 -6z m242
-119 c32 -7 48 -15 43 -20 -8 -8 -162 -13 -215 -8 -31 4 -19 18 20 24 20 4 42
8 47 10 20 7 55 5 105 -6z"/>
<path d="M1082 2217 l-33 -33 36 -34 35 -34 35 34 35 34 -32 33 c-18 18 -34
33 -37 32 -4 0 -21 -15 -39 -32z"/>
<path d="M1250 2155 l-34 -35 74 0 74 0 -34 35 c-19 19 -37 35 -40 35 -3 0
-21 -16 -40 -35z"/>
<path d="M1339 2004 l-23 -25 27 -26 26 -27 26 24 c31 30 31 32 -4 58 l-29 21
-23 -25z"/>
<path d="M1600 2295 l-24 -26 27 -27 27 -27 27 27 27 27 -24 26 c-13 14 -26
25 -30 25 -4 0 -17 -11 -30 -25z"/>
<path d="M1845 2200 l-29 -30 35 -35 35 -35 34 35 34 35 -29 30 c-36 37 -44
37 -80 0z"/>
<path d="M1665 2145 c-22 -19 -37 -35 -35 -37 3 -2 36 -1 73 2 l68 5 -33 32
-33 31 -40 -33z"/>
<path d="M1597 1972 l-27 -28 28 -27 28 -27 27 28 27 28 -28 27 -28 27 -27
-28z"/>
<path d="M680 1684 l-34 -34 35 -35 35 -35 35 37 36 38 -37 32 -37 32 -33 -35z"/>
<path d="M2252 1679 l-34 -30 39 -34 38 -34 35 35 34 34 -34 29 c-19 17 -37
30 -40 30 -3 0 -20 -13 -38 -30z"/>
</g>
</svg>
