<?xml version="1.0" standalone="no"?>
<!DOCTYPE svg PUBLIC "-//W3C//DTD SVG 20010904//EN"
 "http://www.w3.org/TR/2001/REC-SVG-20010904/DTD/svg10.dtd">
<svg version="1.0" xmlns="http://www.w3.org/2000/svg"
 width="900.000000pt" height="870.000000pt" viewBox="0 0 900.000000 870.000000"
 preserveAspectRatio="xMidYMid meet">
<metadata>
Created by potrace 1.10, written by Peter Selinger 2001-2011
</metadata>
<g transform="translate(0.000000,870.000000) scale(0.100000,-0.100000)"
fill="#000000" stroke="none">
<path d="M4259 6897 c-68 -31 -99 -93 -99 -196 l0 -79 -62 -30 c-35 -16 -90
-42 -123 -57 -60 -27 -124 -57 -285 -133 -78 -36 -122 -57 -280 -129 -163 -74
-191 -93 -226 -148 -18 -28 -19 -64 -24 -710 l-5 -680 -60 -30 c-34 -17 -86
-41 -115 -54 -30 -13 -89 -39 -130 -58 -41 -19 -95 -44 -120 -55 -25 -11 -81
-38 -125 -58 -44 -21 -110 -52 -147 -69 -38 -17 -97 -44 -133 -61 -36 -16 -93
-43 -127 -59 -35 -16 -94 -43 -133 -61 -38 -18 -99 -46 -135 -62 -36 -17 -99
-46 -140 -65 -167 -79 -236 -110 -360 -165 -118 -52 -166 -88 -191 -142 -18
-39 -19 -97 -19 -1512 l0 -1470 27 -55 c23 -45 37 -59 82 -81 l55 -28 1123 0
c1091 0 1125 1 1161 19 20 11 48 36 62 57 l25 38 0 600 0 601 -27 45 c-14 25
-116 134 -225 243 -210 208 -222 216 -272 181 -13 -9 -32 -35 -42 -58 -17 -38
-19 -76 -19 -598 l0 -558 -194 0 c-107 0 -197 4 -200 8 -3 5 -8 338 -12 740
l-7 732 23 25 c13 14 27 25 32 25 8 0 44 17 274 126 39 19 79 34 88 34 10 0
34 -13 54 -30 21 -16 238 -130 482 -253 l445 -222 5 -805 c5 -730 7 -808 22
-840 23 -48 37 -64 78 -89 32 -19 50 -21 198 -21 154 0 164 1 200 24 50 32 68
54 81 101 9 30 10 699 4 2618 -4 1417 -6 2582 -5 2587 2 6 8 10 13 10 9 0 296
-136 359 -170 l35 -19 0 -2518 0 -2518 23 -37 c13 -20 39 -46 58 -57 35 -21
42 -21 1186 -21 l1151 0 34 26 c18 14 42 43 53 64 20 39 20 61 20 1508 0 1331
-2 1473 -16 1518 -29 88 -37 93 -351 240 -166 78 -222 103 -288 134 -38 17
-108 50 -155 72 -186 86 -216 100 -245 113 -16 8 -77 36 -135 63 -101 48 -181
85 -300 139 -81 38 -358 170 -410 196 l-45 23 -5 669 -5 670 -28 48 c-15 26
-45 57 -65 70 -37 22 -51 29 -172 85 -80 37 -186 86 -310 145 -52 25 -149 70
-215 101 -203 96 -189 84 -196 163 -9 103 -46 166 -116 202 -29 15 -319 13
-354 -2z m-99 -919 c3 -369 -2 -2943 -5 -2949 -3 -4 -27 4 -53 19 -26 15 -81
44 -122 65 -41 21 -111 58 -155 81 l-80 43 -6 509 c-9 801 -10 2038 -1 2050 4
6 34 23 67 38 152 70 214 100 265 126 60 31 90 37 90 18z m-1002 -2160 l-3
-282 -65 -32 c-36 -18 -153 -75 -260 -127 -107 -52 -274 -133 -370 -180 -183
-88 -234 -126 -256 -189 -9 -25 -13 -254 -13 -904 -1 -662 -4 -873 -13 -882
-17 -17 -338 -17 -361 1 -16 11 -17 93 -17 1141 0 621 1 1130 2 1131 3 2 55
26 163 75 39 18 102 47 140 65 175 81 242 112 535 247 36 17 98 46 138 64 40
19 74 34 77 34 6 0 196 88 225 104 14 8 37 15 53 15 l27 1 -2 -282z m2649 254
c59 -29 108 -53 293 -140 101 -48 156 -73 305 -142 39 -18 111 -51 160 -75 87
-41 168 -79 285 -132 167 -77 220 -105 227 -120 4 -10 6 -517 3 -1128 l-5
-1110 -185 0 -185 0 -5 890 -5 890 -23 47 c-23 47 -75 89 -162 130 -97 46
-663 322 -720 351 l-65 33 -3 255 c-1 139 0 259 3 266 7 19 18 16 82 -15z
m-49 -1161 c9 -5 42 -20 73 -34 161 -74 237 -112 262 -129 l27 -19 -2 -752 -3
-752 -195 0 -195 0 -3 848 c-1 570 1 847 8 847 6 0 18 -4 28 -9z"/>
</g>
</svg>
